<svg width="1987" height="1569" viewBox="0 0 1987 1569" fill="none" xmlns="http://www.w3.org/2000/svg">
<path fill-rule="evenodd" clip-rule="evenodd" d="M291.619 1405.65C294.33 1405.63 297.109 1408.32 299.063 1409.91C293.98 1406.51 285.93 1406.63 280.102 1405.82C274.431 1405.02 268.801 1403.82 263.326 1402.1C263.206 1402.07 251.066 1398.09 255.177 1395.81C266.549 1389.43 280.632 1406.22 291.619 1405.65ZM212.712 1353.33C214.849 1358.57 224.312 1384.24 215.115 1386.07C207.796 1387.53 201.517 1371.91 201.123 1366.69C200.474 1358 200.871 1349.33 199.659 1340.65C204.754 1344.55 210.173 1347.04 212.712 1353.33ZM123.335 1512.06C119.826 1516.39 116.279 1520.73 112.461 1524.79C116.471 1519.82 120.297 1514.83 124.805 1510.29L123.334 1512.06L123.335 1512.06ZM359.173 1311.9C357.248 1309.42 349.728 1312.45 347.575 1312.94C341.67 1314.27 335.278 1315.46 329.88 1313.12C325.249 1311.96 332.745 1303.92 333.918 1300.85C334.741 1298.7 336.457 1293.24 335.031 1291.04C331.974 1286.34 325.576 1291.85 322.39 1294.03C317.724 1297.21 315.794 1299.27 316.601 1293.43C317.47 1287.15 324.053 1276.57 317.393 1271C311.719 1266.26 302.902 1275.26 299.475 1278.88C293.011 1285.68 290.011 1293.38 288.632 1302.55C288.31 1304.68 285.836 1317.32 283.664 1315.09C279.331 1309.52 282.761 1301.35 279.34 1295.35C277.394 1291.94 274.716 1290.25 273.081 1286.41C271.466 1282.62 269.835 1275.83 264.613 1275.42C261.298 1275.16 259.108 1277.9 258.561 1280.64C256.824 1287.05 258.131 1292.82 258.019 1299.31C257.935 1304.06 254.812 1307.64 255.973 1312.53C257.844 1319.98 260.286 1327.79 261.549 1335.55C261.946 1337.98 263.288 1349.06 258.525 1346.89C255.843 1345.67 256.121 1335.31 255.938 1333.49C255.501 1329.14 255.565 1324.8 252.946 1321.03C251.445 1318.87 248.955 1318.04 247.796 1316.34C244.373 1311.33 244.605 1302.83 241.778 1297.32C239.241 1292.38 232.52 1280.39 226.619 1279.22C218.54 1277.62 221.579 1288.62 222.106 1293.44C222.692 1298.78 223.589 1303.65 223.115 1308.86C222.7 1313.46 223.029 1317.19 224.793 1321.65C228.05 1329.91 232.958 1337.03 237.076 1344.55C237.068 1344.52 237.058 1344.49 237.046 1344.47C239.358 1348.88 241.282 1354.36 241.066 1359.46C240.704 1368.02 237.742 1363.66 235.142 1357.84C231.219 1349.06 228.662 1339.67 224.786 1330.89C223.406 1327.76 221.75 1324.59 218.871 1322.55C216.939 1321.18 214.549 1321.51 213.05 1320.69C207.832 1317.81 188.622 1285.25 180.556 1294.96C176.2 1300.2 187.015 1311.4 189.295 1315.32C192.936 1321.58 196.8 1325.9 196.431 1333.33C194.314 1331.37 191.402 1332.39 189.466 1330.83C187.166 1328.97 186.521 1325.03 185.444 1322.45C182.483 1315.36 178.997 1308.38 174.364 1302.27C160.226 1283.61 162.604 1311.82 164.004 1321.13C164.273 1322.92 164.587 1325.2 164.866 1327.24C165.588 1332.57 164.347 1333.44 163.584 1338.15C162.287 1346.18 171.748 1356.77 176.637 1362.52C178.144 1364.29 201.394 1393.1 191.201 1392.86C186.062 1392.74 177.397 1378.13 174.998 1373.64C171.31 1366.74 168.777 1352.96 161.119 1349.38C158.713 1348.26 156.726 1349.44 154.497 1348.56C149.29 1346.49 145.756 1338.34 141.99 1334.52C134.324 1326.76 124.905 1327.84 131.318 1340.43C133.858 1345.42 135.117 1348.74 136.677 1354.17C138.456 1360.36 144.044 1363.55 146.616 1368.97C148.741 1373.45 145.434 1371.05 145.626 1376.38C145.786 1380.81 152.655 1385.66 155.887 1388.12C160.377 1391.54 180.617 1403.01 176.649 1409.93C173.032 1416.23 161.233 1406.72 158.078 1403.83C150.186 1396.6 147.038 1386.83 142.599 1377.46C140.435 1372.9 137.959 1367.35 134.418 1363.66C131.313 1360.42 127.78 1359.98 123.933 1358.3C119.453 1356.35 99.7077 1345.97 100.618 1358.52C101.229 1366.95 112.98 1371.04 114.448 1379.09C109.163 1376.73 98.1001 1366.03 91.8022 1371.65C85.7227 1377.09 97.7865 1388.82 101.461 1393.25C103.716 1395.97 119.155 1408.21 118.895 1412.79C118.623 1417.58 113.083 1415.86 109.881 1415.23C104.406 1414.14 55.3794 1402.08 55.5973 1412.07C55.7639 1419.82 74.6161 1417.19 77.0518 1421.59C77.9474 1423.2 75.9981 1423.99 75.653 1425.71C74.3907 1432.03 76.4842 1434.55 83.1171 1435.25C76.818 1450.34 97.6726 1442.33 104.683 1439.92C109.459 1438.28 129.779 1430.85 131.186 1441.05C131.659 1444.48 125.92 1449.88 124.942 1453.23C123.057 1459.7 127.808 1463.67 134.049 1461.48C138.343 1459.98 142.244 1456.17 144.999 1452.65C146.582 1450.63 149.38 1443.98 152.022 1443.52C151.758 1454.47 158.146 1448.81 163.972 1444.1C168.33 1440.58 179.186 1431.01 185.663 1434.82C180.591 1441.86 173.662 1447.46 168.122 1454.11C162.059 1461.39 155.749 1468.19 148.756 1475.07C135.493 1488.11 122.2 1502.33 110.532 1516.76C104.824 1523.81 98.643 1530.53 92.5247 1537.23C90.316 1539.64 76.4516 1550.48 81.3102 1554.88C87.8825 1560.83 99.291 1538.32 103.982 1535.71C126.284 1510.35 150.052 1486.26 171.669 1460.41C170.779 1463.33 171.754 1471.55 176.163 1471.41C175.124 1473.81 172.007 1477.46 172.731 1480.2C174.337 1486.28 176.794 1480.81 179.072 1481.16C182.963 1481.77 179.768 1488.79 179.048 1491.65C175.687 1504.97 175.056 1519.54 174.19 1533.24C173.716 1540.76 180.039 1561.59 190.718 1552.67C196.05 1548.23 196.601 1537.09 196.94 1530.86C197.156 1526.93 195.36 1516.01 198.088 1512.61C202.605 1515 208.025 1525.73 210.925 1529.58C217.054 1537.72 222.418 1542.89 233.069 1543.58C258.374 1545.24 227.729 1516.5 230.783 1514.57C232.932 1513.22 247.748 1525.72 249.708 1527.21C254.051 1530.52 267.282 1538.59 272.139 1531.82C276.213 1526.14 265.793 1516.63 262.701 1512.97C260.107 1509.91 258.171 1505.71 254.925 1502.62C252.254 1500.07 248.677 1498.63 246.032 1496.21C243.282 1493.69 243.122 1490.07 240.056 1487.19C236.616 1483.96 231.938 1481.26 228.151 1478.31C221.821 1473.39 212.865 1467 212.123 1458.07C226.583 1459.86 236.458 1475.61 246.33 1484.75C251.268 1489.33 257.082 1495.2 264.233 1493.64C267.105 1493.01 264.03 1492.45 267.875 1492.19C268.738 1492.13 269.907 1492.63 270.743 1492.83C276.737 1494.24 282.479 1496.43 288.423 1497.99C292.11 1498.96 303.939 1503.28 307.244 1499.73C313.237 1493.3 287.361 1477.13 282.787 1473.55C279.326 1470.84 275.163 1468.52 271.897 1465.71C268.899 1463.13 267.891 1459.68 263.859 1457.78C258.639 1455.32 252.57 1454.48 247.128 1452.63C239.808 1450.15 233.714 1446.5 227.621 1441.82C225.097 1439.87 218.972 1435.7 220.296 1432.19C222.427 1426.55 232.035 1433.76 234.757 1435.3C242.818 1439.88 250.361 1447.17 260.329 1450.18C270.64 1453.29 275.936 1463.42 285.43 1467.96C288.86 1469.6 290.791 1469.75 294.407 1469.09C298.43 1468.35 300.337 1467.88 305.064 1469.08C309.348 1470.18 330.019 1476.89 328.446 1467.25C327.937 1464.12 323.403 1462.83 321.105 1461.55C316.042 1458.73 311.125 1455.62 305.994 1452.93C302.736 1451.22 298.595 1450.04 295.928 1447.38C293.398 1444.87 292.833 1442.3 289.194 1440.66C284.295 1438.46 276.929 1438.81 272.638 1435.83C268.545 1432.98 265.31 1428.89 260.624 1426.26C256.895 1424.18 235.765 1416.35 236.343 1412.86C237.515 1405.76 261.311 1419.33 263.144 1420.33C274.823 1426.67 286.277 1435.14 298.266 1441.11C302.296 1443.12 305.423 1442.37 309.136 1442.92C314.067 1443.64 319.219 1447.03 324.227 1448.2C328.218 1449.14 338.657 1451.58 336.62 1444.63C335.15 1439.61 325.6 1435.28 321.607 1432.24C317.092 1428.8 312.888 1425.09 307.998 1422.18C306.947 1421.55 304.629 1420.76 303.858 1419.9C301.727 1417.5 303.138 1413.85 300.575 1411.15C303.266 1413.74 305.92 1415.08 309.572 1415.12C310.525 1415.13 312.361 1414.11 313.558 1413.96C317.169 1413.51 321.422 1414.72 325.038 1415.13C330.118 1415.7 355.716 1414.97 342.53 1406C336.894 1402.16 330.556 1399.25 324.28 1396.68C319.348 1394.66 312.89 1393.17 308.734 1389.78C304.427 1386.26 303.637 1384.44 297.376 1383.51C290.942 1382.56 281.864 1382.74 276.805 1378.1C266.501 1368.64 300.819 1374.99 304.468 1375.92C311.84 1377.78 319.81 1379.24 327.348 1377.57C335.752 1375.72 342.712 1371.73 351.551 1371.33C355.493 1371.15 368.406 1371.55 368.18 1365.22C367.959 1358.99 353.516 1358.57 349.684 1357.8C345.724 1357.01 341.225 1356.74 337.419 1355.58C333.966 1354.53 331.33 1352.3 327.965 1351C318.425 1347.31 310.319 1352.01 300.807 1351.57C295.785 1351.34 293.391 1349.36 298.64 1345.78C301.472 1343.84 306.021 1343.66 309.36 1342.72C314.382 1341.31 319.326 1339.51 324.284 1337.88C330.974 1335.68 368.541 1323.9 359.173 1311.9Z" fill="#89B99A"/>
<path fill-rule="evenodd" clip-rule="evenodd" d="M1855.91 1116.17C1838.27 1085.17 1814.61 1056.46 1791.84 1029.12C1798.57 1030.96 1807.44 1029.52 1813.58 1026.47C1820.47 1023.05 1823.95 1017.08 1826.74 1010.2C1827.14 1009.22 1829.73 999.146 1831.62 999.688C1835.1 1000.69 1836.1 1022.9 1836.48 1025.61C1837.81 1035.3 1839.88 1044.79 1842.06 1054.33C1846.74 1074.88 1851.83 1095.49 1855.91 1116.17ZM1780.57 1010.93C1775.65 1011.28 1771.93 1004.32 1768.76 1000.72C1774.07 1000.52 1796.74 994.249 1799.45 999.661C1803.85 1008.46 1785.05 1010.6 1780.57 1010.93ZM1669.95 843.111C1669.93 846.048 1669.93 857.38 1665.35 853.866C1662.25 851.486 1660.56 840.827 1659.6 837.558C1657.63 830.896 1654.62 822.689 1654.97 815.659C1655.62 802.353 1664.35 811.431 1666.34 818.529C1668.53 826.354 1669.99 834.954 1669.95 843.111ZM1704.96 901.401C1710.75 897.773 1708.42 904.544 1706.24 907.773C1700.12 916.859 1698.77 906.333 1704.96 901.401ZM1691.92 870.283C1690.69 863.682 1691.3 854.724 1693.18 848.413C1694.66 843.456 1699.4 838.839 1702.3 845.173C1704.72 850.431 1700.15 864.253 1697.72 869.426C1695.74 873.633 1693.03 877.208 1691.92 870.283ZM1666.77 872.305C1667.85 884.973 1656.82 889.61 1657.18 875.147C1657.41 866.298 1664.83 859.762 1666.77 872.305ZM1690.09 948.649C1690.43 953.906 1679.38 972.297 1678.58 962.149C1678.35 959.255 1689.5 943.912 1690.09 948.649ZM1657.69 930.92C1653.91 933.371 1643.53 941.558 1639.6 939.902C1633.32 937.253 1640.49 929.83 1643.28 927.921C1646.33 925.834 1654.68 920.724 1658.88 921.365C1666.59 922.545 1661.59 928.15 1657.69 930.92ZM1600.94 855.173C1591.56 859.168 1588.27 848.008 1586.24 841.344C1584.92 836.984 1580.25 827.868 1585.16 824.757C1593.98 819.157 1603.83 847.948 1600.94 855.173ZM1632 856.486C1630.57 852.014 1629.46 847.446 1628.05 842.966C1627.22 840.302 1622.85 830.92 1623.38 828.69C1625.04 821.615 1630.76 825.148 1634.08 830.335C1637.49 835.66 1641.06 846.768 1640.7 852.878C1640.37 858.545 1635.07 865.131 1632 856.486ZM1614.71 809.457C1612.25 801.677 1617.57 795.137 1623.67 803.805C1630.57 813.607 1620.09 823.97 1614.71 809.457ZM1628.2 946.969C1628.56 954.084 1604.44 964.809 1598.99 961.531C1591.81 957.217 1606.55 951.849 1610.65 949.719C1614.11 947.923 1627.19 938.813 1628.2 946.969ZM1585.45 936.362C1579.33 938.085 1573.06 940.479 1566.76 941.343C1558.11 942.527 1558.19 937.674 1564.66 932.575C1570.31 928.119 1580.89 927.042 1587.64 924.344C1593.03 922.188 1608.66 909.839 1612.57 913.663C1621.36 922.279 1591.23 934.678 1585.45 936.362ZM1587.09 964.091C1587.33 973.763 1561.72 977.003 1555.99 977.568C1559.83 974.834 1585.33 950.754 1587.09 964.091ZM1538.62 915.323C1521.26 914.745 1538.7 902.108 1544.55 899.774C1548.79 898.077 1558.79 894.308 1563.11 897.861C1574.44 907.185 1543.08 915.493 1538.62 915.323ZM1540.59 879.975C1540.98 873.979 1569.87 864.944 1571.51 870.431C1572.79 874.752 1541.97 892.557 1540.59 879.975ZM1582.15 887.209C1593.61 879.357 1609.12 886.735 1591.94 895.84C1588.57 897.624 1579.74 902.443 1576 899.696C1570.72 895.817 1579.11 889.167 1582.15 887.209ZM1898.31 913.607C1895.47 908.577 1891.38 901.55 1886.67 906.294C1884.84 908.134 1882.96 915.82 1881.72 918.706C1877.39 928.807 1872.78 940.085 1863.64 946.851C1858.17 950.899 1839.11 957.436 1843.89 945.08C1847.97 934.538 1861.48 925.204 1869.63 917.557C1873.4 914.011 1882.37 906.733 1884.33 901.589C1885.83 897.667 1882.23 888.438 1875.75 890.522C1872.82 891.469 1872.44 900.053 1871.36 902.498C1869.67 906.357 1866.67 909.382 1864.02 912.59C1859.81 917.678 1855.37 925.136 1848.78 927.532C1840.85 930.418 1838.4 925.777 1842.48 918.659C1846.46 911.703 1855.47 907.225 1860.98 901.515C1863.72 898.673 1872.35 890.361 1870.26 886.112C1865.69 876.86 1859.32 890.394 1857.05 893.145C1855.27 895.297 1844.48 909.187 1841.11 906.533C1837.07 903.346 1846.13 890.505 1847.8 887.762C1851.32 881.973 1852.86 882.298 1848.4 879.206C1845.86 877.436 1840.55 875.919 1837.73 876.319C1830.83 877.299 1823.76 883.674 1816.64 885.364C1813.69 886.065 1803.65 885.907 1802.44 890.42C1800.56 897.365 1830.77 914.01 1814.85 917.799C1802.55 920.722 1790.99 901.675 1780.88 909.511C1764.9 921.898 1790.27 929.435 1800.02 932.003C1804.39 933.156 1818.78 933.656 1816.68 941.384C1814.97 947.667 1803.04 946.281 1798.44 945.509C1789.72 944.051 1781.83 939.831 1773.69 936.696C1771.49 935.853 1762.65 931.058 1760 932.09C1756.2 933.575 1751.6 948.399 1753.81 951.894C1756.54 956.197 1771.52 954.696 1776.58 954.806C1785.14 954.988 1795.63 954.679 1802.93 960.009C1810.98 965.893 1801.03 966.811 1795.53 966.573C1783.66 966.057 1771.54 961.86 1759.91 959.585C1755.86 958.789 1749.82 956.628 1745.79 957.182C1739.69 958.025 1740.97 958.448 1743.48 963.432C1749.08 974.555 1754.76 975.807 1767.14 976.67C1772.79 977.061 1797.49 973.811 1799.44 981.346C1793.36 986.125 1778.64 983.511 1771.48 983.41C1766.23 983.334 1757.74 984.542 1753.18 982.008C1746.97 978.55 1739.13 965.657 1734.58 960.482C1726.51 951.303 1718.57 942.17 1709.73 933.688C1719.37 935.055 1728.4 938.109 1738.16 935.697C1748.83 933.058 1759.06 925.928 1760.64 914.457C1761.21 910.259 1760.51 905.951 1760.21 901.765C1760.12 900.428 1760.18 899.054 1760.02 897.72C1759.32 891.922 1759.8 890.033 1755.82 894.23C1751.29 899.005 1748.14 909.876 1740.35 911.897C1731.72 914.137 1736.35 907.671 1739.85 903.895C1748.52 894.57 1757.99 886.457 1759.43 872.65C1760.21 865.12 1759.77 856.857 1758.41 849.347C1757.1 842.129 1755.8 842.349 1753.36 848.262C1748.06 861.087 1739.81 871.653 1728.83 880.229C1726.73 881.874 1722.01 885.899 1718.84 883.621C1715.96 881.561 1718.05 877.664 1718.83 874.718C1720.56 868.211 1723.04 862.179 1725.48 855.924C1728.7 847.684 1734.31 836.568 1734.53 827.694C1734.68 821.931 1730.01 819.456 1725.89 815.845C1721.07 811.62 1716.74 807.119 1713 801.899C1710.4 798.263 1707.59 792.807 1703.66 790.418C1697.57 786.707 1698.93 791.337 1699.39 795.967C1699.76 799.666 1705.11 836.197 1696.44 834.32C1687.84 832.459 1691.46 798.078 1690.27 790.532C1688.69 780.534 1674.8 781.891 1666.4 780.066C1661.97 779.1 1657.91 778.595 1653.71 776.961C1652.12 776.343 1650.32 773.645 1648.53 774.458C1644.47 776.301 1660.84 791.337 1656.59 796.666C1649.4 805.663 1642.16 781.903 1640.1 777.57C1638.37 773.925 1636.31 769.656 1633.89 766.487C1630.14 761.595 1629.64 762.776 1624.13 764.416C1618.62 766.056 1605.46 765.915 1601.3 769.558C1597.27 773.082 1602.41 775.667 1605.19 778.871C1607.84 781.903 1616.39 792.193 1609.18 794.325C1606.57 795.095 1597.12 787.403 1594.67 785.821C1589.48 782.461 1590.6 783.226 1586.23 784.328C1581.16 785.605 1575.45 787.245 1570.58 788.973C1564.46 791.14 1563 792.169 1567.59 796.552C1572.96 801.687 1581.01 804.78 1583.66 812.127C1584.95 815.3 1584.1 818.849 1580.1 818.912C1575.82 818.981 1573.87 813.146 1572.23 810.018C1570.14 806.06 1566.23 796.75 1561.16 795.919C1557.99 795.399 1554.08 799.228 1551.39 800.618C1549.81 801.44 1542.65 803.575 1542.08 805.781C1541.45 808.203 1549.7 813.455 1551.93 816.038C1557.64 822.628 1563.7 830.77 1565.86 838.701C1567.53 851.649 1552.53 835.916 1550.17 831.989C1547.55 827.635 1539.14 805.124 1531.6 807.403C1529.55 808.025 1528.28 813.023 1526.61 814.659C1524.55 816.662 1521.91 817.468 1519.44 818.712C1515.78 820.558 1512.12 822.402 1508.61 824.488C1507.53 825.132 1504.58 827.006 1504 827.43C1503.55 827.752 1502.58 827.54 1502.04 827.944C1498.37 830.706 1496.66 836.294 1493.31 839.653C1491.81 841.161 1485.14 845.276 1485.63 847.412C1486.07 849.358 1517.85 850.884 1522.61 851.412C1526.23 851.812 1541.43 851.178 1543.29 854.715C1545.1 858.175 1542.03 859.393 1539.04 860.539C1531.62 863.382 1522.27 864.055 1514.47 865.452C1508.95 866.438 1486.36 867.843 1483.44 873.325C1480.41 878.985 1484.09 882.86 1488.3 883.636C1492.92 884.49 1499.58 882.542 1504.09 881.891C1507.76 881.361 1531.21 875.551 1532.42 880.957C1533.73 886.839 1505.7 891.774 1502.92 892.52C1497.62 893.947 1488.67 894.202 1483.99 896.927C1479.8 899.374 1481.36 899.658 1482.53 903.675C1486.55 917.557 1487.98 914.843 1500.26 911.724C1504.95 910.529 1510.99 908.394 1515.47 910.97C1520.83 914.042 1520.54 917.891 1515.75 920.542C1512.46 922.366 1505.59 922.796 1501.9 923.334C1497.59 923.965 1493.22 924.183 1488.87 924.231C1487.6 924.246 1482 923.317 1480.78 924.14C1476 927.37 1487.57 944.194 1492.57 944.85C1495 945.169 1498.94 943.514 1501.35 943.048C1509.76 941.409 1518.32 940.541 1526.77 938.983C1531.52 938.107 1553.79 931.595 1549.8 943.13C1547.6 949.501 1531.49 952.714 1526.14 954.534C1521 956.286 1515.85 957.848 1510.6 959.24C1505.69 960.54 1502.84 960.007 1506.1 965.434C1509.43 970.957 1529.23 987.807 1535.45 987.273C1540.55 986.832 1538.66 984.473 1544.38 987.877C1546.48 989.13 1548.61 991.191 1550.43 992.812C1557.43 999.027 1564.63 1007.99 1574.4 1009.73C1595.29 1013.45 1623.81 985.505 1637.3 972.525C1639.97 969.947 1650.22 957.298 1655.2 960.125C1660.44 963.093 1651.35 974.904 1649.54 977.17C1639.49 989.811 1626.95 1001.94 1612.06 1008.52C1608.09 1010.27 1596.98 1011.95 1593.22 1015.04C1589.49 1018.1 1593.31 1019.09 1597.26 1021.7C1605.7 1027.25 1616.98 1035.45 1627.36 1032.04C1641.01 1027.56 1648.34 1013.23 1655.98 1001.99C1660.22 995.756 1680.07 966.3 1680.33 989.397C1680.46 1000.9 1673.17 1014.06 1665.34 1021.96C1663.87 1023.44 1654.4 1028.16 1654.6 1029.28C1654.9 1030.99 1660.58 1031.72 1661.62 1031.94C1671.67 1034.1 1701.86 1037.05 1706.09 1024.11C1709 1015.23 1705.46 1001.04 1704.21 992.108C1703.82 989.334 1701.88 984.877 1705.86 983.994C1710.97 982.863 1715.35 1000.7 1715.73 1003.53C1716.52 1009.34 1715.64 1015.4 1713.44 1021.39C1712.47 1024.03 1709.82 1026.38 1713.28 1026.79C1714.53 1026.94 1721.56 1020.26 1722.66 1019.14C1728.26 1013.44 1728.64 1007.02 1728.18 999.465C1726.93 979.072 1717.45 959.19 1706.42 942.23C1719.61 955.914 1732.2 970.082 1744.38 984.678C1747.42 988.325 1749.56 992.786 1752.56 996.306C1756.9 1001.38 1762.23 1005.51 1766.74 1010.93C1765.41 1010.79 1753.92 1007.69 1753.59 1010.83C1753.28 1013.67 1763.03 1018.09 1765.03 1019.14C1774.02 1023.9 1777.55 1024.32 1784.62 1032.94C1802.2 1054.39 1818.27 1076.64 1834.01 1099.46C1841.7 1110.62 1849.8 1121.61 1856.57 1133.35C1859.97 1139.24 1862.69 1145.54 1865.28 1151.82C1867.06 1156.14 1869.29 1169.18 1874.82 1170.57C1881.26 1172.18 1879.69 1165.09 1878.38 1161.75C1875.43 1154.23 1873.29 1146.9 1871.19 1139.04C1867.77 1126.26 1865.2 1113.27 1861.47 1100.57C1856.82 1084.71 1852.98 1068.73 1849.15 1052.66C1846.65 1042.24 1844.51 1031.63 1842.91 1021.03C1841.81 1013.74 1842.08 1005.95 1840.13 998.808C1847.74 1005.66 1846.26 1018.05 1858.96 1018.94C1868.78 1019.63 1875.88 1011.7 1881.49 1004.71C1886.07 999.005 1892.66 990.386 1893.55 982.893C1894.61 973.952 1887.11 980.347 1881.53 982.284C1877.92 983.536 1867.99 989.252 1865.02 985.839C1860.88 981.063 1875.68 974.856 1878.54 973.037C1884.83 969.041 1891.81 964.185 1896.6 958.328C1898.5 956.013 1906.34 930.876 1897.64 934.291C1896.54 934.724 1895 938.238 1894.11 939.474C1889.98 945.204 1885.28 950.374 1880.22 955.286C1874.7 960.637 1862.65 973.23 1853.45 970.503C1857.18 959.209 1872.79 953.321 1881.24 945.916C1886.66 941.16 1891.36 935.905 1894.59 929.385C1896.19 926.141 1900.27 917.055 1898.31 913.607Z" fill="#02362C"/>
<path fill-rule="evenodd" clip-rule="evenodd" d="M385.611 172.497C373.132 168.523 360.122 167.589 347.19 166.194C351.311 165.285 355.772 164.07 359.969 163.604C363.831 163.18 366.129 164.771 369.764 166.037C376.252 168.302 383.499 171.054 389.139 173.685C387.97 173.27 386.793 172.874 385.611 172.497ZM367.839 177.462C354.148 174.904 340.131 174.349 326.46 171.674C329.849 170.637 331.77 169.733 335.373 170.076C340.727 170.584 346.146 171.681 351.379 172.846C358.972 174.537 366.634 176.361 374.032 178.76C371.977 178.283 369.912 177.85 367.839 177.462ZM368.497 180.134C367.56 180.513 364.276 179.229 363.215 179C364.237 179.195 367.898 180.376 368.497 180.134ZM341.238 179.853C330.525 179.182 319.682 178.846 308.95 178.902C310.877 178.182 312.717 177.28 314.594 176.438C319.727 174.137 320.619 174.503 325.743 176.015C332.352 177.967 339.123 179.078 345.9 180.208C344.348 180.064 342.793 179.946 341.237 179.854L341.238 179.853ZM328.736 186.031C313.946 187.153 299.356 188.945 284.592 190.598C287.744 189.325 290.775 187.705 293.786 186.14C298.434 183.728 302.003 184.068 307.184 184.066C312.687 184.063 318.093 184.709 323.564 185.331C324.914 185.486 330.199 185.919 328.736 186.031ZM305.947 174.793C313.844 167.125 322.902 159.98 332.183 154.007C338.073 150.216 344.479 145.935 351.401 149.222C339.953 149.698 324.997 160.081 318.221 168.98C317.896 169.401 317.399 169.693 317.06 170.107C315.788 171.651 317.174 171.819 316.308 172.769C316.207 172.881 311.582 174.769 312.196 174.517C309.058 175.811 305.847 176.898 302.705 178.174C303.768 177.029 304.847 175.901 305.948 174.792L305.947 174.793ZM349.996 156.421C342.223 162.921 333.791 166.381 324.43 169.642C332.979 164.144 341.551 159.647 350.948 155.709C350.63 155.946 350.312 156.183 349.996 156.422L349.996 156.421ZM359.667 158.651C361.287 158.132 362.01 158.266 362.371 160.19C358.184 160.031 356.196 160.605 352.24 161.565C354.646 160.423 357.127 159.449 359.667 158.651ZM364.804 159.7C364.513 159.172 364.388 158.164 364.185 157.649C367.293 157.598 369.933 158.255 372.573 159.885C371.699 159.893 365.02 160.664 364.804 159.7L364.804 159.7ZM238.773 231.851C261.494 229.045 283.285 228.312 306.104 230.536C288.913 232.043 271.649 235.498 254.732 238.852C241.15 241.545 227.377 242.999 213.756 245.433C216.28 242.806 218.64 240.023 221.211 237.434C225.677 232.939 232.368 232.652 238.773 231.851ZM316.888 238.542C320.99 238.122 325.082 237.613 329.162 237.015C333.597 236.36 340.671 233.436 345.134 234.317C320.77 241.55 294.441 244.884 269.395 248.96C258.984 250.655 248.385 253.132 238.299 256.275C223.738 260.81 207.314 260.788 193.417 267.159C197.667 262.705 202.322 256.334 207.164 252.712C210.683 250.077 216.521 249.858 220.707 249.305C227.601 248.396 234.528 247.689 241.44 246.945C266.599 244.234 291.719 241.174 316.888 238.542ZM189.477 262.667C187.433 264.917 185.444 267.216 183.51 269.561C187.02 253.101 186.862 235.743 188.839 219.034C189.957 209.586 191.006 200.032 192.509 190.646C193.838 182.358 194.192 171.066 198.636 163.906C201.952 166.986 204.403 170.255 203.744 174.732C202.897 180.49 200.417 186.023 199.264 191.735C197.968 198.154 197.09 204.687 196.289 211.185C195.057 221.179 194.769 231.345 195.297 241.393C195.44 244.218 195.621 247.04 195.841 249.86C195.938 251.09 196.575 253.187 196.304 254.337C195.64 257.165 191.616 260.299 189.477 262.667ZM213.98 194.136C215.928 184.887 217.115 174.141 221.167 165.471C223.415 160.653 225.578 158.938 228.937 164.142C231.335 167.856 227.568 176.008 226.381 180.676C223.014 193.921 221.236 207.511 219.008 220.979C218.427 224.508 218.254 227.998 217.878 231.531C217.565 234.46 217.646 234.286 215.959 236.491C214.874 237.916 213.163 239.126 211.855 240.376C208.426 243.653 204.949 246.887 201.556 250.202C206.719 231.73 210.04 212.882 213.98 194.136ZM468.001 236.144C464.872 231.983 460.904 228.231 456.845 225.015C451.221 220.556 444.335 217.948 438.719 213.66C433.996 210.05 430.095 205.246 425.268 201.59C417.601 195.788 409.709 190.962 400.73 187.476C412.166 191.378 423.133 196.075 432.293 204.172C433.067 204.858 439.777 213.449 441.165 212.628C442.115 212.074 438.089 205.856 437.25 204.407C431.06 193.76 418.357 186.947 408.319 180.108C396.982 172.386 384.603 168.053 371.686 163.782C383.421 164.43 393.308 167.444 403.138 174.047C407.974 177.292 412.447 181.084 417.431 184.098C421.849 186.77 426.093 189.234 429.906 192.82C434.177 196.839 437.608 201.219 440.442 206.353C441.507 208.285 446.709 219.978 446.849 212.55C446.919 208.89 442.296 203.675 440.425 201.03C437.27 196.575 433.611 192.562 429.781 188.682C423.266 182.088 417.048 175.244 409.315 170.041C404.917 167.08 400.311 164.735 395.279 163.044C391.393 161.736 387.404 160.798 383.326 160.336C379.454 159.898 379.081 159.944 376 157.944C373.352 156.223 371.092 154.382 368.129 153.155C365.11 151.903 362.54 151.724 360.294 150.016C357.644 147.997 356.617 145.629 353.197 144.365C350.053 143.202 346.837 143.458 343.557 143.72C332.709 144.584 321.696 147.334 312.722 153.75C304.791 159.422 299.398 168.473 295.564 177.298C293.447 182.167 294.884 181.984 289.199 184.783C283.222 187.727 277.28 190.619 271.465 193.903C281.052 181.986 289.388 168.792 299.899 157.624C305.519 151.659 311.031 145.596 316.65 139.634C318.309 137.877 331.411 125.223 324.052 125.671C322.35 125.774 319.791 128.049 318.227 128.795C315.106 130.293 312.007 131.621 309.122 133.578C304.122 136.972 300.04 141.194 295.95 145.585C285.357 156.96 275.809 169.126 270.921 184.061C269.763 187.595 269.34 191.579 267.527 194.822C266.249 197.11 264.749 197.9 262.155 199.59C257.706 202.483 253.382 205.458 249.169 208.693C259.942 192.738 266.891 174.883 275.379 157.704C286.297 135.616 291.292 110.826 300.475 88.0043C302.256 83.5777 304.426 78.7067 307.415 74.9389C308.324 73.793 311.197 72.0752 311.448 70.6304C312.111 66.819 309.53 67.8423 307.634 68.9384C302.989 71.6234 298.479 77.6799 295.305 81.7623C290.685 87.7003 286.007 94.1418 282.005 100.54C268.22 122.574 259.081 147.58 251.489 172.329C247.917 183.963 244.233 195.789 242.476 207.854C241.628 213.679 242.591 213.835 237.724 217.822C232.641 221.988 227.783 226.408 222.74 230.615C227.336 221.178 230.075 209.475 233.392 199.463C236.864 188.975 240.813 178.645 244.342 168.173C250.082 151.132 254.378 133.685 258.51 116.201C260.705 106.905 262.762 97.6018 264.643 88.2405C267.061 76.2107 269.52 62.32 274.912 51.2231C275.717 49.5727 278.984 41.9044 274.256 44.5456C272.09 45.753 269.523 53.6547 268.417 55.7851C262.153 67.8843 256.877 80.1694 252.162 92.9457C243.805 115.6 237.94 138.815 231.319 161.981C228.009 157.462 221.136 152.487 215.197 154.41C209.863 156.139 207.239 163.732 205.561 168.489C205.375 165.198 201.337 159.06 198.19 158.85C196.401 158.73 193.319 160.425 191.823 161.132C188.126 162.88 183.926 165.092 181.619 168.533C176.893 175.591 177.79 186.67 176.95 194.839C174.449 219.203 174.897 242.727 177.651 266.991C178.28 272.543 179.041 275.119 175.882 279.495C172.274 284.495 168.795 289.411 165.243 294.105C166.384 291.931 165.353 285.286 165.34 282.968C165.303 276.758 165.366 270.601 165.689 264.396C166.35 251.616 165.664 238.408 165.021 225.62C163.695 199.272 163.815 173.26 164.704 146.919C164.89 141.368 164.765 135.852 164.731 130.304C164.717 128.014 165.474 122.403 161.837 123.744C160.78 124.133 160.003 128.23 159.696 129.269C156.862 138.846 155.973 149.207 154.675 159.043C153.496 167.989 152.418 176.95 151.671 185.94C150.235 203.211 150.709 219.982 150.796 237.282C150.87 251.533 152.415 267.026 155.049 280.173C156.285 286.339 158.432 293.001 159.057 299.215C159.437 302.957 157.247 304.344 154.732 307.742C152.187 311.178 149.674 314.641 147.245 318.16C147.479 312.768 145.943 307.193 145.582 301.797C145.28 297.289 144.993 292.804 144.587 288.301C144.264 284.755 143.96 281.205 143.646 277.656C142.027 259.387 140.445 241.159 137.456 223.058C132.861 195.262 127.848 166.696 128.034 138.419C128.071 133.022 128.245 127.629 128.307 122.231C128.353 118.162 127.979 114.126 127.956 110.063C127.943 107.991 128.887 103.984 128.196 101.92C126.197 95.9457 124.464 102.621 124.409 105.364C124.381 106.81 124.294 108.251 124.272 109.696C124.138 118.775 123.357 127.73 122.908 136.799C122.265 149.875 122.84 162.886 123.274 175.956C123.748 190.193 123.392 204.528 124.922 218.713C126.896 236.996 130.849 255.174 133.33 273.409C134.409 281.35 135.915 289.204 136.732 297.182C137.494 304.639 140.141 311.969 141.753 318.857L141.744 318.329C142.368 321.257 143.349 322.72 142.459 325.407C141.832 327.294 140.111 329.278 139.08 331.012C136.882 334.7 134.772 338.431 132.661 342.169C134.532 332.681 131.996 320.71 129.989 311.39C127.771 301.078 125.067 290.516 121.902 280.459C119.441 272.638 117.404 264.95 116.661 256.809C115.671 245.967 112.722 235.54 111.137 224.799C109.641 214.657 107.123 204.615 104.976 194.576C104.492 192.316 102.334 181.506 98.8224 186.382C97.9566 187.585 99.0178 190.78 99.1538 192.024C99.488 195.104 99.6962 198.135 99.8345 201.227C100.731 220.858 104.842 240.786 108.064 260.128C110.123 272.486 112.304 284.889 115.313 297.052C117.656 306.522 118.922 316.361 121.521 325.698C122.768 330.177 124.035 334.755 126.027 338.96C127.76 342.62 129.508 343.642 128.896 347.586C128.021 353.224 123.22 359.077 121.054 364.536C119.283 368.999 117.476 373.47 115.788 377.964C113.43 384.26 111.22 390.666 109.151 397.061C107.95 400.765 105.621 405.546 105.403 409.313C105.071 415.035 108.309 413.398 110.01 409.571C111.154 406.995 112.068 404.224 113.144 401.605C121.04 382.414 128.269 361.838 140.059 344.619C144.977 337.428 158.571 335.695 166.547 333.188C185.735 327.149 206.492 326.353 226.401 324.146C242.455 322.37 258.248 320.736 273.965 316.788C276.26 316.213 318.153 303.879 317.102 301.728C317.689 302.935 271.27 313.265 267.553 313.57C255.896 314.52 244.275 314.775 232.593 315.269C203.37 316.506 174.627 317.208 148.075 331.015C151.425 325.745 155.433 315.797 161.315 313.756C172.651 309.818 184.598 307.275 196.018 303.435C207.89 299.449 220.082 296.779 232.023 293.085C243.951 289.395 255.853 285.572 267.962 282.469C280.134 279.35 292.708 276.1 305.356 276.501C310.224 276.656 315.106 277.087 319.953 277.545C321.784 277.718 336.355 280.412 328.476 277.066C323.374 274.897 316.694 274.73 311.228 273.934C304.961 273.024 298.953 272.216 292.618 272.266C278.824 272.372 264.967 275.606 251.634 278.807C235.677 282.634 219.065 286.432 203.832 292.591C189.872 298.236 175.84 303.656 161.879 309.231C164.418 305.345 167.118 301.576 169.759 297.759C171.042 295.902 172.395 292.889 174.217 291.621C176.996 289.684 182.845 289.181 186.074 288.106C199.064 283.787 212.114 278.714 225.425 275.501C246.828 270.333 268.74 267.128 290.275 262.529C302.844 259.848 316.153 257.482 329.004 257.71C333.838 257.798 338.679 257.622 343.425 258.643C345.104 259.003 347.218 259.933 348.948 260.129C354.122 260.709 350.283 258.22 347.144 257.132C322.265 248.519 294.842 255.405 269.764 258.91C253.179 261.225 236.805 263.587 220.97 269.292C206.379 274.547 192.429 281.556 177.595 286.171C181.483 280.646 184.949 274.925 191.161 271.885C198.035 268.524 205.28 267.062 212.782 265.788C228.379 263.13 243.872 259.728 259.519 257.413C273.894 255.29 288.242 253.406 302.491 250.508C316.364 247.682 330.157 246.031 343.398 240.691C347.59 239 352.673 236.069 357.149 235.813C362.951 235.482 369.976 237.22 375.665 238.082C389.521 240.177 403.904 242.337 416.713 248.202C429.281 253.958 437.815 263.004 447.436 272.461C450.467 275.445 453.45 278.479 456.472 281.471C457.145 282.138 461.162 287.146 461.99 287.21C467.114 287.594 457.448 277.438 455.78 275.357C444.253 260.976 431.779 248.982 414.821 241.147C400.369 234.469 385.26 230.126 369.5 227.902C369.54 225.053 381.151 224.911 381.47 221.96C381.891 218.025 373.766 221.963 372.156 222.447C369.098 223.365 366.124 224.513 363.051 225.382C355.996 227.376 348.189 224.92 341.022 224C332.38 222.896 323.625 222.172 314.934 221.649C286.164 219.914 258.56 220.868 230.615 228.577C235.63 224.185 240.861 220.011 246.161 215.969C248.224 214.396 249.797 212.955 252.135 212.217C256.083 210.97 260.771 211.527 264.887 211.124C281.159 209.537 297.357 207.753 313.719 207.251C340.645 206.425 368.72 211.258 394.256 219.818C406.713 223.996 418.935 228.059 429.753 235.749C432.257 237.527 434.484 239.568 436.76 241.623C437.701 242.472 443.446 248.649 443.738 248.616C446.229 248.35 434.676 235.565 432.997 233.932C410.435 212.003 381.16 207.018 351.267 202.615C320.007 198.009 288.631 200.455 257.834 207.404C263.984 203.567 270.028 196.991 276.932 194.76C282.176 193.064 288.832 193.386 294.138 192.842C309.526 191.26 325.655 193.947 341.076 195.039C358.497 196.271 375.42 198.506 392.263 203.147C400.881 205.522 409.274 208.035 417.682 211.119C424.346 213.563 429.783 215.068 435.175 219.534C437.35 221.352 443.82 226.18 447.321 229.462C448.749 230.803 450.228 233.635 451.842 234.309C457.854 236.817 449.875 227.021 448.565 225.321C453.344 228.176 457.805 231.482 462.048 235.002C462.887 235.7 463.69 236.233 464.54 236.87C465.538 237.621 466.06 239.812 467.768 239.082C469.159 238.484 468.665 237.051 468.001 236.144Z" fill="#012A32"/>
</svg>
